<svg width="403" height="403" viewBox="0 0 403 403" fill="none" xmlns="http://www.w3.org/2000/svg">
<circle cx="201.5" cy="201.5" r="201.5" fill="#00D0FF"/>
<circle cx="202" cy="202" r="174" fill="white"/>
<path d="M133.177 220.655C139.513 215.177 144.496 210.689 148.126 207.191C151.822 203.627 154.891 199.931 157.333 196.103C159.775 192.275 160.996 188.447 160.996 184.619C160.996 180.659 160.039 177.557 158.125 175.313C156.277 173.069 153.34 171.947 149.314 171.947C145.42 171.947 142.384 173.201 140.206 175.709C138.094 178.151 136.972 181.451 136.84 185.609H125.95C126.148 178.085 128.392 172.343 132.682 168.383C137.038 164.357 142.549 162.344 149.215 162.344C156.409 162.344 162.019 164.324 166.045 168.284C170.137 172.244 172.183 177.524 172.183 184.124C172.183 188.876 170.962 193.463 168.52 197.885C166.144 202.241 163.273 206.168 159.907 209.666C156.607 213.098 152.383 217.091 147.235 221.645L142.78 225.605H174.163V235.01H126.049V226.793L133.177 220.655ZM230.608 173.531H197.443V193.232C198.829 191.384 200.875 189.833 203.581 188.579C206.353 187.325 209.29 186.698 212.392 186.698C217.936 186.698 222.424 187.886 225.856 190.262C229.354 192.638 231.829 195.641 233.281 199.271C234.799 202.901 235.558 206.729 235.558 210.755C235.558 215.639 234.601 219.995 232.687 223.823C230.839 227.585 228.034 230.555 224.272 232.733C220.576 234.911 216.022 236 210.61 236C203.416 236 197.641 234.218 193.285 230.654C188.929 227.09 186.322 222.371 185.464 216.497H196.453C197.179 219.599 198.796 222.074 201.304 223.922C203.812 225.704 206.947 226.595 210.709 226.595C215.395 226.595 218.893 225.176 221.203 222.338C223.579 219.5 224.767 215.738 224.767 211.052C224.767 206.3 223.579 202.67 221.203 200.162C218.827 197.588 215.329 196.301 210.709 196.301C207.475 196.301 204.736 197.126 202.492 198.776C200.314 200.36 198.73 202.538 197.74 205.31H187.048V163.631H230.608V173.531Z" fill="black"/>
<path d="M244.142 173.797C244.142 171.315 244.856 169.377 246.284 167.983C247.746 166.555 249.616 165.841 251.894 165.841C254.172 165.841 256.025 166.555 257.453 167.983C258.915 169.377 259.646 171.315 259.646 173.797C259.646 176.279 258.915 178.234 257.453 179.662C256.025 181.09 254.172 181.804 251.894 181.804C249.616 181.804 247.746 181.09 246.284 179.662C244.856 178.234 244.142 176.279 244.142 173.797ZM275.252 166.504L254.903 202H249.191L269.54 166.504H275.252ZM251.894 169.36C249.752 169.36 248.681 170.839 248.681 173.797C248.681 176.789 249.752 178.285 251.894 178.285C252.914 178.285 253.696 177.928 254.24 177.214C254.818 176.466 255.107 175.327 255.107 173.797C255.107 170.839 254.036 169.36 251.894 169.36ZM264.899 194.656C264.899 192.174 265.613 190.236 267.041 188.842C268.503 187.414 270.373 186.7 272.651 186.7C274.895 186.7 276.731 187.414 278.159 188.842C279.621 190.236 280.352 192.174 280.352 194.656C280.352 197.138 279.621 199.093 278.159 200.521C276.731 201.949 274.895 202.663 272.651 202.663C270.373 202.663 268.503 201.949 267.041 200.521C265.613 199.093 264.899 197.138 264.899 194.656ZM272.6 190.219C270.458 190.219 269.387 191.698 269.387 194.656C269.387 197.614 270.458 199.093 272.6 199.093C274.742 199.093 275.813 197.614 275.813 194.656C275.813 191.698 274.742 190.219 272.6 190.219Z" fill="black"/>
</svg>
