<svg width="190" height="27" viewBox="0 0 190 27" fill="none" xmlns="http://www.w3.org/2000/svg">
<g filter="url(#filter0_d_243_261)">
<path d="M16.04 19L16 11.58L12.4 17.62H10.64L7.06 11.78V19H3.4V5H6.66L11.58 13.08L16.38 5H19.64L19.68 19H16.04ZM32.142 19.28C30.662 19.28 29.3287 18.9667 28.142 18.34C26.9687 17.7133 26.042 16.8467 25.362 15.74C24.6954 14.6333 24.362 13.3867 24.362 12C24.362 10.6133 24.6954 9.36667 25.362 8.26C26.042 7.15333 26.9687 6.28667 28.142 5.66C29.3287 5.03333 30.662 4.72 32.142 4.72C33.622 4.72 34.9487 5.03333 36.122 5.66C37.3087 6.28667 38.2354 7.15333 38.902 8.26C39.582 9.36667 39.922 10.6133 39.922 12C39.922 13.3867 39.582 14.6333 38.902 15.74C38.2354 16.8467 37.3087 17.7133 36.122 18.34C34.9487 18.9667 33.622 19.28 32.142 19.28ZM32.142 16C32.8487 16 33.4887 15.8333 34.062 15.5C34.6354 15.1667 35.0887 14.7 35.422 14.1C35.7554 13.4867 35.922 12.7867 35.922 12C35.922 11.2133 35.7554 10.52 35.422 9.92C35.0887 9.30667 34.6354 8.83333 34.062 8.5C33.4887 8.16667 32.8487 8 32.142 8C31.4354 8 30.7954 8.16667 30.222 8.5C29.6487 8.83333 29.1954 9.30667 28.862 9.92C28.5287 10.52 28.362 11.2133 28.362 12C28.362 12.7867 28.5287 13.4867 28.862 14.1C29.1954 14.7 29.6487 15.1667 30.222 15.5C30.7954 15.8333 31.4354 16 32.142 16ZM58.3078 5L52.3078 19H48.4078L42.4278 5H46.7078L50.5078 14.12L54.3878 5H58.3078ZM61.7273 5H65.6873V19H61.7273V5ZM82.3447 15.94V19H71.1047V5H82.0847V8.06H75.0247V10.42H81.2447V13.38H75.0247V15.94H82.3447ZM99.7822 19L99.7422 11.58L96.1422 17.62H94.3822L90.8022 11.78V19H87.1422V5H90.4022L95.3222 13.08L100.122 5H103.382L103.422 19H99.7822ZM118.204 16.28H112.284L111.184 19H107.144L113.324 5H117.224L123.424 19H119.304L118.204 16.28ZM117.044 13.36L115.244 8.88L113.444 13.36H117.044ZM140.467 5V19H137.207L131.027 11.54V19H127.147V5H130.407L136.587 12.46V5H140.467ZM145.86 5H149.82V19H145.86V5ZM164.617 16.28H158.697L157.597 19H153.557L159.737 5H163.637L169.837 19H165.717L164.617 16.28ZM163.457 13.36L161.657 8.88L159.857 13.36H163.457ZM180.345 19.28C178.878 19.28 177.558 18.9733 176.385 18.36C175.225 17.7333 174.312 16.8667 173.645 15.76C172.978 14.6533 172.645 13.4 172.645 12C172.645 10.6 172.978 9.34667 173.645 8.24C174.312 7.13333 175.225 6.27333 176.385 5.66C177.558 5.03333 178.878 4.72 180.345 4.72C181.625 4.72 182.778 4.94667 183.805 5.4C184.832 5.85333 185.685 6.50667 186.365 7.36L183.845 9.64C182.938 8.54667 181.838 8 180.545 8C179.785 8 179.105 8.16667 178.505 8.5C177.918 8.83333 177.458 9.30667 177.125 9.92C176.805 10.52 176.645 11.2133 176.645 12C176.645 12.7867 176.805 13.4867 177.125 14.1C177.458 14.7 177.918 15.1667 178.505 15.5C179.105 15.8333 179.785 16 180.545 16C181.838 16 182.938 15.4533 183.845 14.36L186.365 16.64C185.685 17.4933 184.832 18.1467 183.805 18.6C182.778 19.0533 181.625 19.28 180.345 19.28Z" fill="url(#paint0_linear_243_261)"/>
<path fill-rule="evenodd" clip-rule="evenodd" d="M37.9278 15.8619C38.7462 14.6482 39.2239 13.1859 39.2239 11.6119C39.2239 7.40798 35.8159 4 31.6119 4C27.408 4 24 7.40798 24 11.6119C24 15.8159 27.408 19.2239 31.6119 19.2239C32.4445 19.2239 33.2458 19.0902 33.9956 18.8432C35.6992 18.762 38.8354 17.0699 39.6458 16.5481C40.8259 15.7884 41.9598 18.015 42.5815 19.4112L44.0666 20.9999L44.6538 19.9591C44.2808 19.5103 43.8896 18.9166 43.4789 18.2934C42.1182 16.2287 40.5439 13.8398 38.7133 15.319C38.4804 15.5073 38.2153 15.6898 37.9278 15.8619Z" fill="url(#paint1_linear_243_261)"/>
<circle cx="29.6331" cy="16.0776" r="1.77612" fill="#FEFEFE"/>
<circle cx="34.3523" cy="16.2805" r="1.77612" fill="#FEFEFE"/>
<circle cx="36.6868" cy="11.8657" r="1.77612" fill="#FEFEFE"/>
<circle cx="34.3523" cy="7.45068" r="1.77612" fill="#FEFEFE"/>
<circle cx="29.6331" cy="7.45068" r="1.77612" fill="#FEFEFE"/>
<circle cx="27.4509" cy="11.8657" r="1.77612" fill="#FEFEFE"/>
</g>
<defs>
<filter id="filter0_d_243_261" x="0.399902" y="4" width="188.965" height="23" filterUnits="userSpaceOnUse" color-interpolation-filters="sRGB">
<feFlood flood-opacity="0" result="BackgroundImageFix"/>
<feColorMatrix in="SourceAlpha" type="matrix" values="0 0 0 0 0 0 0 0 0 0 0 0 0 0 0 0 0 0 127 0" result="hardAlpha"/>
<feOffset dy="3"/>
<feGaussianBlur stdDeviation="1.5"/>
<feComposite in2="hardAlpha" operator="out"/>
<feColorMatrix type="matrix" values="0 0 0 0 0 0 0 0 0 0 0 0 0 0 0 0 0 0 0.25 0"/>
<feBlend mode="normal" in2="BackgroundImageFix" result="effect1_dropShadow_243_261"/>
<feBlend mode="normal" in="SourceGraphic" in2="effect1_dropShadow_243_261" result="shape"/>
</filter>
<linearGradient id="paint0_linear_243_261" x1="2" y1="12" x2="183.366" y2="16.2212" gradientUnits="userSpaceOnUse">
<stop stop-color="#0047FF"/>
<stop offset="0.503125" stop-color="#00D1FF"/>
<stop offset="0.878125" stop-color="#FF55DA"/>
</linearGradient>
<linearGradient id="paint1_linear_243_261" x1="34.3269" y1="4" x2="34.3269" y2="20.9999" gradientUnits="userSpaceOnUse">
<stop stop-color="#3069FC"/>
<stop offset="0.576042" stop-color="#F03FFF"/>
<stop offset="0.919792" stop-color="#3FDCFF"/>
</linearGradient>
</defs>
</svg>
