<svg width="73" height="61" viewBox="0 0 73 61" fill="none" xmlns="http://www.w3.org/2000/svg">
<path fill-rule="evenodd" clip-rule="evenodd" d="M49.2277 41.9257C52.12 37.6359 53.8084 32.4672 53.8084 26.9042C53.8084 12.0454 41.763 0 26.9042 0C12.0454 0 0 12.0454 0 26.9042C0 41.763 12.0454 53.8084 26.9042 53.8084C29.8466 53.8084 32.6786 53.336 35.3287 52.4631C41.3502 52.1763 52.4352 46.1953 55.2996 44.3512C59.4706 41.6659 63.4784 49.5358 65.6757 54.4706L70.9247 60.086L73 56.4072C71.6818 54.8207 70.2989 52.7224 68.8473 50.5197C64.038 43.222 58.4737 34.7787 52.0037 40.0069C51.1803 40.6723 50.2436 41.3173 49.2277 41.9257Z" fill="url(#paint0_linear_260_264)"/>
<circle cx="19.909" cy="42.6883" r="6.27764" fill="#FEFEFE"/>
<circle cx="36.5897" cy="43.4053" r="6.27764" fill="#FEFEFE"/>
<circle cx="44.8404" cy="27.8011" r="6.27764" fill="#FEFEFE"/>
<circle cx="36.5897" cy="12.1966" r="6.27764" fill="#FEFEFE"/>
<circle cx="19.909" cy="12.1966" r="6.27764" fill="#FEFEFE"/>
<circle cx="12.1966" cy="27.8011" r="6.27764" fill="#FEFEFE"/>
<defs>
<linearGradient id="paint0_linear_260_264" x1="36.5" y1="0" x2="36.5" y2="60.0859" gradientUnits="userSpaceOnUse">
<stop stop-color="#00D0FF"/>
<stop offset="0.523958" stop-color="#B047F0"/>
<stop offset="1" stop-color="#FF55DA"/>
</linearGradient>
</defs>
</svg>
